#!OML:ASF H:\Terrain\Patient Classification 1\PLAYGROUND\JustinFriday\JustinFriday.ASF
:FULLY-SPECIFIED
:DEGREES
1900
root 11.7408 9.25979 0.063262 130.02 9.7842 -180.152
lowerback 30.4122 0.37002 3.72838
upperback 6.75364 3.72866 3.11797
thorax -9.09507 2.46149 -0.135297
lowerneck 13.56 -2.66496 -8.78102
upperneck 14.4192 -2.93454 5.37096
head 2.69081 -0.934343 3.45365
rclavicle 2.28602e-014 -3.06128e-014
rhumerus 52.9047 -8.22987 -39.9779
rradius 75.3666
rwrist -0.317894
rhand -18.4598 -29.0673
rfingers 7.12502
rthumb 7.8266 -418.902
lclavicle 2.28602e-014 -3.06128e-014
lhumerus 52.2284 5.09046 46.1069
lradius 78.0009
lwrist -5.00532
lhand -13.0848 5.83537
lfingers 7.12502
lthumb 13.0114 35.4096
rfemur -52.5499 -16.4639 25.2432
rtibia 129.644
rfoot -6.9694 -11.4796
rtoes 33.7678
lfemur -43.453 14.4914 -7.76451
ltibia 91.8062
lfoot -9.88802 -12.9364
ltoes -26.5237
1901
root 11.7425 9.19628 -0.118985 129.298 9.56814 -180.624
lowerback 30.2347 0.473892 3.35772
upperback 6.91684 3.7387 3.04669
thorax -8.83787 2.48957 0.00367568
lowerneck 13.6518 -2.51356 -8.73361
upperneck 14.4326 -2.70695 5.24154
head 2.65748 -0.813336 3.3949
rclavicle 1.45113e-014 3.97569e-015
rhumerus 53.3455 -8.58047 -38.9975
rradius 74.7599
rwrist -0.921675
rhand -18.0684 -29.8013
rfingers 7.12502
rthumb 8.20428 -419.622
lclavicle 1.45113e-014 3.97569e-015
lhumerus 52.5662 5.61849 44.979
lradius 77.4534
lwrist -4.60504
lhand -12.5297 6.39015
lfingers 7.12502
lthumb 13.5465 35.9295
rfemur -52.3422 -15.3848 24.1297
rtibia 128.444
rfoot -7.60202 -10.2785
rtoes 31.3276
lfemur -43.0008 14.993 -8.02233
ltibia 93.1416
lfoot -9.87268 -13.2345
ltoes -27.0512
1902
root 11.7409 9.1231 -0.303902 128.782 9.6002 -180.885
lowerback 30.0923 0.597742 3.13102
upperback 6.94867 3.83613 3.22565
thorax -8.75807 2.54274 0.305604
lowerneck 13.7485 -2.51109 -8.98431
upperneck 14.416 -2.71833 5.06332
head 2.6406 -0.831042 3.37992
rclavicle -5.96354e-015 5.1684e-015
rhumerus 53.7856 -8.67803 -37.7802
rradius 74.1177
rwrist -1.25618
rhand -17.6432 -30.0072
rfingers 7.12502
rthumb 8.61463 -419.811
lclavicle -5.96354e-015 5.1684e-015
lhumerus 52.6568 6.102 43.9778
lradius 76.8997
lwrist -3.81133
lhand -12.5648 6.48776
lfingers 7.12502
lthumb 13.5126 36.0293
rfemur -52.4206 -14.0339 23.5384
rtibia 127.157
rfoot -8.51836 -9.22324
rtoes 29.5268
lfemur -42.8956 15.68 -7.93014
ltibia 94.608
lfoot -9.74669 -14.0252
ltoes -26.2857
1903
root 11.7357 9.05563 -0.490001 128.323 9.37682 -181.256
lowerback 29.8965 0.743278 2.74001
upperback 6.957 3.90002 3.38667
thorax -8.6882 2.57866 0.695538
lowerneck 13.5135 -2.33615 -9.80729
upperneck 15.1109 -2.572 5.61714
head 2.62033 -0.752566 3.42837
rclavicle 4.79071e-014 5.56597e-014
rhumerus 54.1238 -8.84253 -36.3038
rradius 73.6632
rwrist -1.77611
rhand -17.5426 -29.5272
rfingers 7.12502
rthumb 8.71173 -419.327
lclavicle 4.79071e-014 5.56597e-014
lhumerus 52.6954 6.53058 42.932
lradius 76.2713
lwrist -2.9317
lhand -12.6639 6.60647
lfingers 7.12502
lthumb 13.4172 36.1544
rfemur -52.7147 -12.9632 22.6268
rtibia 125.752
rfoot -9.5492 -7.76069
rtoes 26.335
lfemur -42.8181 16.2095 -8.17408
ltibia 96.0892
lfoot -10.028 -14.3983
ltoes -25.3614
1904
root 11.7283 9.00066 -0.673785 127.728 9.29745 -181.27
lowerback 29.876 0.632663 2.952
upperback 6.96926 3.83877 3.47343
thorax -8.65898 2.55174 0.694043
lowerneck 13.4455 0.722879 -9.46215
upperneck 14.994 -3.06163 6.25598
head 2.5449 -2.90139 3.49747
rclavicle 2.84262e-014 2.70347e-014
rhumerus 54.4415 -9.11044 -34.9884
rradius 73.2287
rwrist -2.58569
rhand -17.4367 -29.3248
rfingers 7.12502
rthumb 8.8139 -419.121
lclavicle 2.84262e-014 2.70347e-014
lhumerus 52.6954 6.93929 41.6974
lradius 75.7192
lwrist -2.45506
lhand -12.3289 7.20628
lfingers 7.12502
lthumb 13.74 36.7326
rfemur -52.5035 -12.1137 22.0494
rtibia 123.999
rfoot -10.3223 -6.52814
rtoes 22.4625
lfemur -42.4369 16.5112 -7.9092
ltibia 97.5665
lfoot -10.6236 -14.6969
ltoes -24.6422
1905
root 11.7172 8.94894 -0.859178 127.123 9.2637 -181.024
lowerback 29.7186 0.466084 3.35586
upperback 7.13063 3.79285 3.63114
thorax -8.38933 2.5523 0.663499
lowerneck 13.1721 0.604954 -9.11231
upperneck 15.1602 -3.08281 5.59964
head 2.63176 -2.8977 3.22985
rclavicle 7.95139e-015 2.46493e-014
rhumerus 54.7946 -9.61775 -33.7296
rradius 72.7511
rwrist -3.13635
rhand -16.9142 -29.3962
rfingers 7.12502
rthumb 9.31817 -419.17
lclavicle 7.95139e-015 2.46493e-014
lhumerus 52.9589 7.41578 40.5952
lradius 75.2087
lwrist -2.10729
lhand -11.9333 7.77075
lfingers 7.12502
lthumb 14.1212 37.2709
rfemur -51.9477 -11.4174 21.6067
rtibia 122.108
rfoot -11.1362 -5.53572
rtoes 19.0991
lfemur -41.9911 16.6926 -7.36996
ltibia 99.0866
lfoot -11.4242 -14.9202
ltoes -24.5126
